<?xml version="1.0" encoding="utf-8"?>
<!-- Generator: Adobe Illustrator 15.0.0, SVG Export Plug-In . SVG Version: 6.00 Build 0)  -->
<!DOCTYPE svg PUBLIC "-//W3C//DTD SVG 1.1//EN" "http://www.w3.org/Graphics/SVG/1.1/DTD/svg11.dtd">
<svg version="1.1" id="layer" xmlns="http://www.w3.org/2000/svg" xmlns:xlink="http://www.w3.org/1999/xlink" x="0px" y="0px"
	 width="612px" height="115.947px" viewBox="0 338.034 612 115.947" enable-background="new 0 338.034 612 115.947"
	 xml:space="preserve">
<polygon id="letter_x5F_x" fill="#00157A" points="612,429.406 595.84,394.291 609.403,364.708 598.904,364.708 590.547,382.84 
	582.232,364.722 571.648,364.708 585.354,394.291 569.123,429.406 579.608,429.406 590.448,405.627 601.458,429.406 "/>
<polygon id="letter_x5F_n2" fill="#00157A" points="531.425,429.364 521.833,429.364 521.833,374.413 547.472,412.21 
	547.472,374.938 557.063,374.938 557.063,429.406 547.585,429.406 531.425,405.612 "/>
<path id="letter_x5F_o_1_" fill="#00157A" d="M488.264,430.102c-10.633-0.008-19.252-8.621-19.268-19.254v-17.536
	c0.011-10.634,8.641-19.245,19.273-19.233c10.618,0.011,19.222,8.616,19.233,19.233v17.522
	C507.495,421.461,498.891,430.078,488.264,430.102z M488.264,383.663c-5.312,0.031-9.604,4.337-9.62,9.648v17.536
	c0.205,5.333,4.693,9.49,10.025,9.285c5.046-0.193,9.092-4.239,9.285-9.285l0.057-17.536c-0.016-5.344-4.36-9.664-9.705-9.648l0,0
	H488.264z"/>
<polygon id="letter_x5F_m2" fill="#00157A" points="454.112,429.378 444.521,429.378 444.521,397.695 432.205,424.299 
	420.018,397.923 420.018,429.378 410.412,429.378 410.412,374.923 420.003,374.923 432.248,401.498 444.379,374.966 
	454.112,374.966 "/>
<polygon id="letter_x5F_m1" fill="#00157A" points="393.514,429.378 383.908,429.378 383.908,397.682 371.606,424.299 
	359.419,397.923 359.419,429.378 349.813,429.378 349.813,374.923 359.405,374.923 371.649,401.498 383.78,374.966 393.514,374.966 
	"/>
<path id="letter_x5F_o" fill="#00157A" d="M316.485,430.088c-10.627-0.016-19.238-8.627-19.254-19.254v-17.537
	c0.289-10.637,9.146-19.026,19.784-18.737c10.23,0.278,18.46,8.506,18.737,18.737v17.522
	C335.745,421.458,327.123,430.08,316.485,430.088z M316.485,383.649c-5.316,0.031-9.612,4.346-9.62,9.663v17.536
	c0.005,5.337,4.334,9.659,9.671,9.654c5.33-0.004,9.649-4.324,9.654-9.654v-17.536c-0.008-5.333-4.33-9.655-9.663-9.663H316.485z"/>
<path id="letter_x5F_c" fill="#00157A" d="M274.814,393.396c-0.004-5.336-4.334-9.659-9.67-9.654
	c-5.33,0.004-9.649,4.324-9.654,9.654v17.522c0.205,5.333,4.693,9.489,10.025,9.285c5.046-0.193,9.092-4.239,9.285-9.285h9.605
	c-0.289,10.638-9.146,19.026-19.784,18.738c-10.231-0.278-18.46-8.507-18.738-18.738v-17.522
	c0.289-10.637,9.146-19.026,19.784-18.738c10.231,0.278,18.46,8.506,18.738,18.738H274.814z"/>
<polygon id="letter_x5F_n1" fill="#00157A" points="205.83,429.378 196.225,429.378 196.225,374.413 221.863,412.21 
	221.863,374.952 231.455,374.952 231.455,429.421 221.977,429.421 205.83,405.627 "/>
<path id="letter_x5F_u" fill="#00157A" d="M143.302,410.777c0.061,10.631,8.61,19.262,19.239,19.424
	c10.636,0,19.26-8.618,19.268-19.254v-46.211h-9.648v46.155c-0.204,5.332-4.693,9.489-10.025,9.285
	c-5.046-0.193-9.092-4.239-9.285-9.285v-46.169h-9.549V410.777z"/>
<rect id="b7" x="104.355" y="338.034" fill="#00157A" width="11.535" height="115.963"/>
<rect id="b6" x="86.989" y="338.034" fill="#00157A" width="11.535" height="115.963"/>
<rect id="b5" x="69.636" y="338.034" fill="#00157A" width="11.535" height="115.963"/>
<rect id="b4" x="52.242" y="338.034" fill="#00157A" width="11.535" height="115.963"/>
<rect id="b3" x="34.818" y="338.034" fill="#00157A" width="11.535" height="115.963"/>
<rect id="b2" x="17.409" y="338.034" fill="#00157A" width="11.535" height="115.963"/>
<rect id="b1" y="338.034" fill="#00157A" width="11.535" height="115.961"/>
<linearGradient id="g7_1_" gradientUnits="userSpaceOnUse" x1="110.123" y1="424.167" x2="110.123" y2="367.1675">
	<stop  offset="0" style="stop-color:#00E0A5;stop-opacity:0"/>
	<stop  offset="0.15" style="stop-color:#00E0A5;stop-opacity:0.7"/>
	<stop  offset="0.35" style="stop-color:#00E0A5"/>
	<stop  offset="0.65" style="stop-color:#00E0A5"/>
	<stop  offset="0.85" style="stop-color:#00E0A5;stop-opacity:0.7"/>
	<stop  offset="1" style="stop-color:#00E0A5;stop-opacity:0"/>
</linearGradient>
<rect id="g7" x="104.355" y="367.167" fill="url(#g7_1_)" width="11.535" height="57"/>
<linearGradient id="g6_1_" gradientUnits="userSpaceOnUse" x1="92.7563" y1="407.5" x2="92.7563" y2="383.834">
	<stop  offset="0" style="stop-color:#00E0A5;stop-opacity:0"/>
	<stop  offset="0.15" style="stop-color:#00E0A5;stop-opacity:0.7"/>
	<stop  offset="0.35" style="stop-color:#00E0A5"/>
	<stop  offset="0.65" style="stop-color:#00E0A5"/>
	<stop  offset="0.85" style="stop-color:#00E0A5;stop-opacity:0.7"/>
	<stop  offset="1" style="stop-color:#00E0A5;stop-opacity:0"/>
</linearGradient>
<rect id="g6" x="86.989" y="383.833" fill="url(#g6_1_)" width="11.535" height="23.667"/>
<linearGradient id="g5b_1_" gradientUnits="userSpaceOnUse" x1="40.5864" y1="511.248" x2="40.5864" y2="492.4482" gradientTransform="matrix(-1 0 0 -1 115.9902 946.4453)">
	<stop  offset="0" style="stop-color:#00E0A5;stop-opacity:0"/>
	<stop  offset="0.4" style="stop-color:#00E0A5;stop-opacity:0.7"/>
	<stop  offset="0.7" style="stop-color:#00E0A5"/>
</linearGradient>
<rect id="g5b" x="69.636" y="435.197" fill="url(#g5b_1_)" width="11.535" height="18.8"/>
<linearGradient id="g5a_1_" gradientUnits="userSpaceOnUse" x1="75.4038" y1="356.8335" x2="75.4038" y2="338.0337">
	<stop  offset="0" style="stop-color:#00E0A5;stop-opacity:0"/>
	<stop  offset="0.4" style="stop-color:#00E0A5;stop-opacity:0.7"/>
	<stop  offset="0.7" style="stop-color:#00E0A5"/>
</linearGradient>
<rect id="g5a" x="69.636" y="338.034" fill="url(#g5a_1_)" width="11.535" height="18.8"/>
<linearGradient id="g4b_1_" gradientUnits="userSpaceOnUse" x1="57.9795" y1="528.8271" x2="57.9795" y2="492.4482" gradientTransform="matrix(-1 0 0 -1 115.9902 946.4453)">
	<stop  offset="0" style="stop-color:#00E0A5;stop-opacity:0"/>
	<stop  offset="0.45" style="stop-color:#00E0A5;stop-opacity:0.7"/>
	<stop  offset="0.7" style="stop-color:#00E0A5"/>
</linearGradient>
<rect id="g4b" x="52.243" y="417.618" fill="url(#g4b_1_)" width="11.535" height="36.379"/>
<linearGradient id="g4a_1_" gradientUnits="userSpaceOnUse" x1="58.0093" y1="374.4126" x2="58.0093" y2="338.0337">
	<stop  offset="0" style="stop-color:#00E0A5;stop-opacity:0"/>
	<stop  offset="0.45" style="stop-color:#00E0A5;stop-opacity:0.7"/>
	<stop  offset="0.7" style="stop-color:#00E0A5"/>
</linearGradient>
<rect id="g4a" x="52.242" y="338.034" fill="url(#g4a_1_)" width="11.535" height="36.379"/>
<linearGradient id="g3b_1_" gradientUnits="userSpaceOnUse" x1="75.4043" y1="511.248" x2="75.4043" y2="492.4482" gradientTransform="matrix(-1 0 0 -1 115.9902 946.4453)">
	<stop  offset="0" style="stop-color:#00E0A5;stop-opacity:0"/>
	<stop  offset="0.4" style="stop-color:#00E0A5;stop-opacity:0.7"/>
	<stop  offset="0.7" style="stop-color:#00E0A5"/>
</linearGradient>
<rect id="g3b" x="34.818" y="435.197" fill="url(#g3b_1_)" width="11.535" height="18.8"/>
<linearGradient id="g3a_1_" gradientUnits="userSpaceOnUse" x1="40.5859" y1="356.8335" x2="40.5859" y2="338.0337">
	<stop  offset="0" style="stop-color:#00E0A5;stop-opacity:0"/>
	<stop  offset="0.4" style="stop-color:#00E0A5;stop-opacity:0.7"/>
	<stop  offset="0.7" style="stop-color:#00E0A5"/>
</linearGradient>
<rect id="g3a" x="34.818" y="338.034" fill="url(#g3a_1_)" width="11.535" height="18.8"/>
<linearGradient id="g2_1_" gradientUnits="userSpaceOnUse" x1="23.1768" y1="407.5" x2="23.1768" y2="383.834">
	<stop  offset="0" style="stop-color:#00E0A5;stop-opacity:0"/>
	<stop  offset="0.15" style="stop-color:#00E0A5;stop-opacity:0.7"/>
	<stop  offset="0.35" style="stop-color:#00E0A5"/>
	<stop  offset="0.65" style="stop-color:#00E0A5"/>
	<stop  offset="0.85" style="stop-color:#00E0A5;stop-opacity:0.7"/>
	<stop  offset="1" style="stop-color:#00E0A5;stop-opacity:0"/>
</linearGradient>
<rect id="g2" x="17.409" y="383.833" fill="url(#g2_1_)" width="11.535" height="23.667"/>
<linearGradient id="g1_1_" gradientUnits="userSpaceOnUse" x1="5.7676" y1="424.167" x2="5.7676" y2="367.1675">
	<stop  offset="0" style="stop-color:#00E0A5;stop-opacity:0"/>
	<stop  offset="0.15" style="stop-color:#00E0A5;stop-opacity:0.7"/>
	<stop  offset="0.35" style="stop-color:#00E0A5"/>
	<stop  offset="0.65" style="stop-color:#00E0A5"/>
	<stop  offset="0.85" style="stop-color:#00E0A5;stop-opacity:0.7"/>
	<stop  offset="1" style="stop-color:#00E0A5;stop-opacity:0"/>
</linearGradient>
<rect id="g1" y="367.167" fill="url(#g1_1_)" width="11.535" height="57"/>
</svg>
